<?xml version="1.0" standalone="no"?><!DOCTYPE svg PUBLIC "-//W3C//DTD SVG 1.1//EN" "http://www.w3.org/Graphics/SVG/1.1/DTD/svg11.dtd"><svg t="1720681738497" class="icon" viewBox="0 0 1024 1024" version="1.1" xmlns="http://www.w3.org/2000/svg" p-id="6800" xmlns:xlink="http://www.w3.org/1999/xlink" width="200" height="200"><path d="M512.024611 0L68.589887 255.950779v511.901557l443.434724 255.950779 443.385502-255.950779V255.950779z" fill="#FFFFFF" p-id="6801"></path><path d="M955.410113 256l-138.804076-80.132282-133.488175 77.080561 138.804076 80.132282 133.488175-77.080561zM202.078062 333.080561l443.434724-256L511.975389 0 68.589887 256l133.488175 77.080561zM373.220535 592.132282l138.754854 80.132283 138.804076-80.132283-138.804076-80.132282-138.754854 80.132282z" fill="#E0684B" p-id="6802"></path><path d="M821.921938 333.080561v357.838878l-309.946549 178.919438-309.897327-178.919438v-357.838878L68.589887 256v512l443.385502 256 443.434724-256V256l-133.488175 77.080561z" fill="#BB464B" p-id="6803"></path><path d="M511.975389 351.735435L373.220535 431.867718v160.264564l138.754854-80.132282 138.804076 80.132282V431.867718l-138.804076-80.132283z" fill="#BB464B" p-id="6804"></path><path d="M821.921938 333.080561l-171.142473 98.787157v160.264564l-138.804076 80.132283v197.574312l309.946549-178.919438v-357.838878z" fill="#E0DED8" p-id="6805"></path><path d="M202.078062 333.080561l171.142473 98.787157v160.264564l138.754854 80.132283v197.574312l-309.897327-178.919438v-357.838878z" fill="#D5D2CA" p-id="6806"></path></svg>