<?xml version="1.0" standalone="no"?><!DOCTYPE svg PUBLIC "-//W3C//DTD SVG 1.1//EN" "http://www.w3.org/Graphics/SVG/1.1/DTD/svg11.dtd"><svg t="1720419352784" class="icon" viewBox="0 0 1024 1024" version="1.1" xmlns="http://www.w3.org/2000/svg" p-id="13562" xmlns:xlink="http://www.w3.org/1999/xlink" width="32" height="32"><path d="M-0.039293 512a512 512 0 1 0 512-512 512 512 0 0 0-512 512z m0 0" fill="#00A2FF" p-id="13563"></path><path d="M0.754506 540.894264q-0.793798-14.447132-0.793799-28.933954a509.618605 509.618605 0 0 1 41.833178-202.855194l15.59814-5.19938 44.174884 46.39752-8.850853 94.977984z m134.271007 317.519379a510.055194 510.055194 0 0 1-133.358139-304.382015c50.644341-5.755039 126.412403-11.708527 126.412403-11.708527l57.431318 97.16093h35.324031l30.918449 39.967752z m3.968993-696.994728l94.303255-3.135504v52.986046l-66.52031 136.930233-48.580465-4.405581-40.245581-103.431938a514.421085 514.421085 0 0 1 61.003411-78.903566z m884.569302 362.249922l-13.137365-4.96124h-91.7631a12.899225 12.899225 0 0 1-9.208062-3.968992l-113.671938-116.013644a12.899225 12.899225 0 0 0-19.606822 1.389148l-24.568062 33.458604a12.899225 12.899225 0 0 0 10.39876 20.51969h30.204031a12.899225 12.899225 0 0 1 10.04155 4.802481l101.010853 125.261395a12.899225 12.899225 0 0 1 1.151008 14.526512l-159.712249 277.392868a12.899225 12.899225 0 0 1-11.192558 6.469457h-32.863255a12.899225 12.899225 0 0 1-11.906977-7.501395l-94.660465-205.831938a12.899225 12.899225 0 0 0-11.906977-7.501395h-55.565892a12.899225 12.899225 0 0 1-10.636899-5.635969l-51.31907-75.013954a12.899225 12.899225 0 0 1-2.262325-7.302946v-50.366511a12.938915 12.938915 0 0 1 3.135504-8.414264l37.189457-43.142946a12.899225 12.899225 0 0 1 9.763721-4.484961h123.475349a12.899225 12.899225 0 0 0 11.232248-6.588527l25.242791-44.889302a12.899225 12.899225 0 0 0-11.232248-19.209923h-144.074419a12.899225 12.899225 0 0 1-11.906977-17.900155l68.703256-164.117829a12.899225 12.899225 0 0 1 11.906977-7.937985h261.635969a12.899225 12.899225 0 0 0 12.462635-16.272868l-4.365891-15.875969a12.899225 12.899225 0 0 1 12.462636-16.272868h13.296124a510.174264 510.174264 0 0 1 142.089922 353.795969v11.589457z m-194.202791 301.643411l35.324031 4.405581-61.836899 53.025737v-22.305737z m0 0" fill="#00E116" p-id="13564"></path></svg>